<svg xmlns="http://www.w3.org/2000/svg" xmlns:xlink="http://www.w3.org/1999/xlink" viewBox="0,0,256,256" width="50px" height="50px" fill-rule="nonzero"><g fill="#ff9b08" fill-rule="nonzero" stroke="none" stroke-width="1" stroke-linecap="butt" stroke-linejoin="miter" stroke-miterlimit="10" stroke-dasharray="" stroke-dashoffset="0" font-family="none" font-weight="none" font-size="none" text-anchor="none" style="mix-blend-mode: normal"><g transform="scale(5.12,5.12)"><path d="M32.21875,2.0625l-4.375,1.71875l0.78125,3.78125c-0.30469,0.30469 -0.62891,0.65625 -0.96875,1.03125l-3.75,-0.84375l-1.84375,4.3125l3.1875,2.125c-0.03516,0.52734 -0.03516,1.06641 0,1.59375l-3.28125,2l1.71875,4.375l3.6875,-0.75c0.33203,0.39844 0.69531,0.76172 1.09375,1.09375l-0.84375,3.6875l4.34375,1.84375l2.125,-3.1875c0.53125,0.03516 1.03125,0.03516 1.5625,0l2.03125,3.28125l4.375,-1.71875l-0.84375,-4c0.39453,-0.32812 0.73438,-0.70312 1.0625,-1.09375l3.8125,0.96875l1.875,-4.375l-3.3125,-2.03125c0.03125,-0.51953 0.03125,-1.01172 0,-1.53125l3.28125,-2.03125l-1.71875,-4.375l-3.8125,0.84375c-0.32812,-0.39453 -0.69922,-0.76562 -1.09375,-1.09375l0.84375,-3.6875l-4.34375,-1.84375l-2.03125,3.1875c-0.52344,-0.05078 -1.05078,-0.07812 -1.5625,-0.03125zM35,11c2.21094,0 4,1.78906 4,4c0,2.21094 -1.78906,4 -4,4c-2.21094,0 -4,-1.78906 -4,-4c0,-2.21094 1.78906,-4 4,-4zM13.53125,20l-0.625,4c-0.55078,0.17578 -1.10937,0.42578 -1.65625,0.71875l-3.34375,-2.4375l-3.5,3.5l2.3125,3.375c-0.27734,0.54688 -0.49609,1.09766 -0.6875,1.65625l-4.03125,0.75v4.875l4,0.71875c0.17578,0.55469 0.42188,1.13672 0.71875,1.6875l-2.4375,3.25l3.5,3.5l3.375,-2.3125c0.54297,0.27734 1.10156,0.49609 1.65625,0.6875l0.625,4.03125h4.90625l0.71875,-4c0.55859,-0.17578 1.13672,-0.42187 1.6875,-0.71875l3.34375,2.4375l3.5,-3.5l-2.40625,-3.375c0.27344,-0.54297 0.46484,-1.10156 0.65625,-1.65625l4.15625,-0.75v-4.90625l-4.09375,-0.625c-0.17578,-0.55078 -0.42578,-1.11328 -0.71875,-1.65625l2.40625,-3.34375l-3.46875,-3.625l-3.40625,2.4375c-0.53516,-0.27344 -1.07422,-0.49609 -1.625,-0.6875l-0.625,-4.03125zM16,30c2.19922,0 4,1.80078 4,4c0,2.19922 -1.80078,4 -4,4c-2.19922,0 -4,-1.80078 -4,-4c0,-2.19922 1.80078,-4 4,-4z"></path></g></g></svg>