<?xml version="1.0" standalone="no"?><svg xmlns="http://www.w3.org/2000/svg" viewBox="0 0 1440 320"><path fill="#0099ff" fill-opacity="1" d="M0,256L7.1,229.3C14.1,203,28,149,42,122.7C56.5,96,71,96,85,128C98.8,160,113,224,127,229.3C141.2,235,155,181,169,176C183.5,171,198,213,212,218.7C225.9,224,240,192,254,176C268.2,160,282,160,296,138.7C310.6,117,325,75,339,90.7C352.9,107,367,181,381,186.7C395.3,192,409,128,424,90.7C437.6,53,452,43,466,53.3C480,64,494,96,508,122.7C522.4,149,536,171,551,154.7C564.7,139,579,85,593,69.3C607.1,53,621,75,635,74.7C649.4,75,664,53,678,80C691.8,107,706,181,720,218.7C734.1,256,748,256,762,229.3C776.5,203,791,149,805,117.3C818.8,85,833,75,847,64C861.2,53,875,43,889,58.7C903.5,75,918,117,932,149.3C945.9,181,960,203,974,197.3C988.2,192,1002,160,1016,170.7C1030.6,181,1045,235,1059,240C1072.9,245,1087,203,1101,165.3C1115.3,128,1129,96,1144,101.3C1157.6,107,1172,149,1186,165.3C1200,181,1214,171,1228,186.7C1242.4,203,1256,245,1271,266.7C1284.7,288,1299,288,1313,266.7C1327.1,245,1341,203,1355,160C1369.4,117,1384,75,1398,80C1411.8,85,1426,139,1433,165.3L1440,192L1440,0L1432.9,0C1425.9,0,1412,0,1398,0C1383.5,0,1369,0,1355,0C1341.2,0,1327,0,1313,0C1298.8,0,1285,0,1271,0C1256.5,0,1242,0,1228,0C1214.1,0,1200,0,1186,0C1171.8,0,1158,0,1144,0C1129.4,0,1115,0,1101,0C1087.1,0,1073,0,1059,0C1044.7,0,1031,0,1016,0C1002.4,0,988,0,974,0C960,0,946,0,932,0C917.6,0,904,0,889,0C875.3,0,861,0,847,0C832.9,0,819,0,805,0C790.6,0,776,0,762,0C748.2,0,734,0,720,0C705.9,0,692,0,678,0C663.5,0,649,0,635,0C621.2,0,607,0,593,0C578.8,0,565,0,551,0C536.5,0,522,0,508,0C494.1,0,480,0,466,0C451.8,0,438,0,424,0C409.4,0,395,0,381,0C367.1,0,353,0,339,0C324.7,0,311,0,296,0C282.4,0,268,0,254,0C240,0,226,0,212,0C197.6,0,184,0,169,0C155.3,0,141,0,127,0C112.9,0,99,0,85,0C70.6,0,56,0,42,0C28.2,0,14,0,7,0L0,0Z"></path></svg>